<?xml version="1.0" encoding="UTF-8"?>
<svg version="1.1" xmlns="http://www.w3.org/2000/svg" width="500" height="500">
<path d="M0 0 C165 0 330 0 500 0 C500 165 500 330 500 500 C335 500 170 500 0 500 C0 335 0 170 0 0 Z " fill="#000000" transform="translate(0,0)"/>
<path d="M0 0 C1.56552066 1.39847335 3.11360239 2.81360118 4.65551758 4.23803711 C5.16566406 4.70435547 5.67581055 5.17067383 6.20141602 5.65112305 C29.01822756 26.73171558 47.06026811 58.70047791 48.76266479 90.2219696 C48.81929778 92.38402739 48.8463548 94.54402109 48.85864258 96.70678711 C48.86434265 97.50475708 48.87004272 98.30272705 48.87591553 99.12487793 C48.8853173 100.80906877 48.8918802 102.4932776 48.89575195 104.17749023 C48.90538481 106.70322538 48.93642362 109.22811984 48.96801758 111.75366211 C49.06081287 125.70645886 46.99893552 138.41383324 42.46801758 151.67553711 C42.16758545 152.56168701 41.86715332 153.44783691 41.55761719 154.36083984 C29.51196068 188.79957942 3.92396289 216.59715708 -28.34448242 233.23803711 C-33.22743982 235.57199112 -38.23481028 237.45285877 -43.34448242 239.23803711 C-43.97676758 239.46330078 -44.60905273 239.68856445 -45.26049805 239.9206543 C-69.80145852 248.5654851 -96.98799796 250.55781197 -122.34448242 244.23803711 C-123.32457275 244.01253174 -123.32457275 244.01253174 -124.32446289 243.7824707 C-143.16561964 239.38817815 -161.36986842 230.46670598 -176.34448242 218.23803711 C-176.93551758 217.76221191 -177.52655273 217.28638672 -178.13549805 216.79614258 C-208.04038184 192.55171329 -225.43793699 159.29240648 -230.34448242 121.23803711 C-231.26250733 104.0032274 -231.06100563 86.93383166 -226.34448242 70.23803711 C-226.071604 69.23546875 -226.071604 69.23546875 -225.79321289 68.21264648 C-216.31016669 34.21266315 -192.34167797 4.3813136 -162.34448242 -13.76196289 C-149.5905038 -20.85255685 -136.51948849 -26.32797359 -122.34448242 -29.76196289 C-121.46791992 -29.99270508 -120.59135742 -30.22344727 -119.68823242 -30.46118164 C-78.82440871 -40.60519422 -31.4045836 -27.31732345 0 0 Z " fill="#000001" transform="translate(334.344482421875,82.761962890625)"/>
<path d="M0 0 C1.56552066 1.39847335 3.11360239 2.81360118 4.65551758 4.23803711 C5.16566406 4.70435547 5.67581055 5.17067383 6.20141602 5.65112305 C29.01822756 26.73171558 47.06026811 58.70047791 48.76266479 90.2219696 C48.81929778 92.38402739 48.8463548 94.54402109 48.85864258 96.70678711 C48.86434265 97.50475708 48.87004272 98.30272705 48.87591553 99.12487793 C48.8853173 100.80906877 48.8918802 102.4932776 48.89575195 104.17749023 C48.90538481 106.70322538 48.93642362 109.22811984 48.96801758 111.75366211 C49.06081287 125.70645886 46.99893552 138.41383324 42.46801758 151.67553711 C42.16758545 152.56168701 41.86715332 153.44783691 41.55761719 154.36083984 C29.51196068 188.79957942 3.92396289 216.59715708 -28.34448242 233.23803711 C-33.22743982 235.57199112 -38.23481028 237.45285877 -43.34448242 239.23803711 C-43.97676758 239.46330078 -44.60905273 239.68856445 -45.26049805 239.9206543 C-69.80145852 248.5654851 -96.98799796 250.55781197 -122.34448242 244.23803711 C-123.32457275 244.01253174 -123.32457275 244.01253174 -124.32446289 243.7824707 C-143.16561964 239.38817815 -161.36986842 230.46670598 -176.34448242 218.23803711 C-176.93551758 217.76221191 -177.52655273 217.28638672 -178.13549805 216.79614258 C-208.04038184 192.55171329 -225.43793699 159.29240648 -230.34448242 121.23803711 C-231.26250733 104.0032274 -231.06100563 86.93383166 -226.34448242 70.23803711 C-226.071604 69.23546875 -226.071604 69.23546875 -225.79321289 68.21264648 C-216.31016669 34.21266315 -192.34167797 4.3813136 -162.34448242 -13.76196289 C-149.5905038 -20.85255685 -136.51948849 -26.32797359 -122.34448242 -29.76196289 C-121.46791992 -29.99270508 -120.59135742 -30.22344727 -119.68823242 -30.46118164 C-78.82440871 -40.60519422 -31.4045836 -27.31732345 0 0 Z M-116.34448242 -21.76196289 C-117.12968262 -21.59035645 -117.91488281 -21.41875 -118.72387695 -21.24194336 C-140.58958109 -16.24553433 -160.66552168 -6.97707867 -177.34448242 8.23803711 C-177.94905273 8.78814453 -178.55362305 9.33825195 -179.17651367 9.9050293 C-199.07299332 28.24157785 -212.63688998 50.97336792 -219.34448242 77.23803711 C-219.52922119 77.92752441 -219.71395996 78.61701172 -219.90429688 79.32739258 C-221.8553396 87.53893356 -221.69930395 95.85141285 -221.65698242 104.23803711 C-221.65449493 105.01938019 -221.65200745 105.80072327 -221.64944458 106.60574341 C-221.48894919 139.1246105 -211.82062296 168.35645206 -190.34448242 193.23803711 C-189.58264648 194.15069336 -188.82081055 195.06334961 -188.03588867 196.00366211 C-171.8678062 214.79437471 -147.50793745 229.58943723 -123.34448242 235.23803711 C-122.09795898 235.53452148 -120.85143555 235.83100586 -119.56713867 236.13647461 C-85.85804498 243.29451417 -49.74461185 237.29985913 -20.49389648 219.08569336 C9.80100763 199.35276062 31.48700566 168.72334197 39.06201172 133.26025391 C45.70046283 98.15190901 38.09415709 62.32687659 18.14160156 32.87695312 C-2.4633191 3.47332844 -32.24497077 -14.82514546 -67.00463867 -22.57836914 C-75.32266211 -23.94401478 -83.682042 -23.95408303 -92.09448242 -24.01196289 C-93.80003296 -24.02622314 -93.80003296 -24.02622314 -95.54003906 -24.04077148 C-102.69480872 -24.01262567 -109.36464713 -23.32118847 -116.34448242 -21.76196289 Z " fill="#0092AC" transform="translate(334.344482421875,82.761962890625)"/>
<path d="M0 0 C4.1855322 0.87198588 5.61234617 2.07969582 8 5.625 C8.27082453 12.01856716 6.09571455 18.35480007 4.1875 24.375 C3.91760254 25.24463379 3.64770508 26.11426758 3.36962891 27.01025391 C2.83059883 28.7469143 2.28899892 30.48277948 1.74462891 32.21777344 C1.0883695 34.33932023 0.46209166 36.46541084 -0.14453125 38.6015625 C-0.46808594 39.72304687 -0.79164063 40.84453125 -1.125 42 C-1.39570313 42.95648438 -1.66640625 43.91296875 -1.9453125 44.8984375 C-4.07472547 50.40336435 -7.6888435 54.55628109 -11.6875 58.8125 C-16.02169759 63.499332 -20.10000325 68.33063019 -24.08984375 73.3125 C-25.65039602 75.20175756 -27.22857528 76.93687111 -29 78.625 C-28.67 78.955 -28.34 79.285 -28 79.625 C-28 86.225 -28 92.825 -28 99.625 C-44.5 99.625 -61 99.625 -78 99.625 C-78 93.025 -78 86.425 -78 79.625 C-76.02 79.13 -76.02 79.13 -74 78.625 C-73.93530518 77.90957031 -73.87061035 77.19414062 -73.80395508 76.45703125 C-73.49501704 73.17724953 -73.15403468 69.90154122 -72.8125 66.625 C-72.71130859 65.49964844 -72.61011719 64.37429687 -72.50585938 63.21484375 C-71.59868223 54.82958477 -69.77211696 49.2889787 -63.68359375 43.375 C-60.27086362 41.14952242 -56.73817427 39.37239575 -53.0625 37.625 C-49.11314919 35.73698169 -45.40586531 33.9069748 -41.80078125 31.40234375 C-37.52590155 28.68955399 -33.90531645 28.97045624 -29 29.625 C-26.17482153 30.42242941 -23.69397526 31.42767766 -21 32.625 C-20.72003174 31.90570313 -20.44006348 31.18640625 -20.15161133 30.4453125 C-18.22561618 25.72852303 -15.93875781 21.19328942 -13.6875 16.625 C-13.21376953 15.64015625 -12.74003906 14.6553125 -12.25195312 13.640625 C-6.14712851 1.28065177 -6.14712851 1.28065177 0 0 Z " fill="#000303" transform="translate(326,175.375)"/>
<path d="M0 0 C2.82413242 0.34198479 3.85512033 0.98190897 5.8984375 3 C8.94135914 7.52479054 11.24808675 12.34999969 13.625 17.25 C14.59462085 19.23261947 15.56590294 21.21442759 16.5390625 23.1953125 C17.17642334 24.50653076 17.17642334 24.50653076 17.82666016 25.84423828 C19.03777866 28.30367495 19.03777866 28.30367495 21 31.125 C21.5775 30.980625 22.155 30.83625 22.75 30.6875 C23.4925 30.501875 24.235 30.31625 25 30.125 C25.62777344 29.96128906 26.25554687 29.79757813 26.90234375 29.62890625 C33.64068509 28.01019855 37.65903852 28.63432242 43.48364258 32.09326172 C46.07906638 33.71284768 48.65017804 35.36888743 51.22119141 37.02685547 C53.60557247 38.49884916 56.08575016 39.69457145 58.625 40.875 C64.53314978 43.75559044 67.78998929 47.03009008 70.32885742 53.16308594 C71.43324312 56.39147571 71.83280136 59.68798176 72.1875 63.0625 C72.26935547 63.72701172 72.35121094 64.39152344 72.43554688 65.07617188 C72.97862427 69.78132138 73.06877555 74.39006783 73 79.125 C74.65 79.125 76.3 79.125 78 79.125 C78 85.725 78 92.325 78 99.125 C61.5 99.125 45 99.125 28 99.125 C28 91.865 28 84.605 28 77.125 C24.36593015 72.32134445 21.94581696 69.23589329 17.58642578 65.54541016 C15.07485547 63.29666961 13.09547766 60.76621141 11 58.125 C10.319375 57.279375 9.63875 56.43375 8.9375 55.5625 C8.298125 54.758125 7.65875 53.95375 7 53.125 C6.3296875 52.41085938 5.659375 51.69671875 4.96875 50.9609375 C2.12555836 46.86538763 0.92340646 42.49657048 -0.5 37.75 C-0.80043213 36.77353516 -1.10086426 35.79707031 -1.41040039 34.79101562 C-2.2899881 31.906935 -3.14973391 29.01784758 -4 26.125 C-4.34973877 24.93922363 -4.34973877 24.93922363 -4.70654297 23.72949219 C-9.3527345 7.77410507 -9.3527345 7.77410507 -6.5 2.1875 C-3.78494169 -0.0524231 -3.32796966 -0.21731145 0 0 Z " fill="#000203" transform="translate(162,175.875)"/>
<path d="M0 0 C4.1855322 0.87198588 5.61234617 2.07969582 8 5.625 C8.27082453 12.01856716 6.09571455 18.35480007 4.1875 24.375 C3.91760254 25.24463379 3.64770508 26.11426758 3.36962891 27.01025391 C2.83059883 28.7469143 2.28899892 30.48277948 1.74462891 32.21777344 C1.0883695 34.33932023 0.46209166 36.46541084 -0.14453125 38.6015625 C-0.46808594 39.72304687 -0.79164063 40.84453125 -1.125 42 C-1.39570313 42.95648438 -1.66640625 43.91296875 -1.9453125 44.8984375 C-4.07472547 50.40336435 -7.6888435 54.55628109 -11.6875 58.8125 C-16.02169759 63.499332 -20.10000325 68.33063019 -24.08984375 73.3125 C-25.65039602 75.20175756 -27.22857528 76.93687111 -29 78.625 C-28.67 78.955 -28.34 79.285 -28 79.625 C-28 86.225 -28 92.825 -28 99.625 C-44.5 99.625 -61 99.625 -78 99.625 C-78 93.025 -78 86.425 -78 79.625 C-76.02 79.13 -76.02 79.13 -74 78.625 C-73.93530518 77.90957031 -73.87061035 77.19414062 -73.80395508 76.45703125 C-73.49501704 73.17724953 -73.15403468 69.90154122 -72.8125 66.625 C-72.71130859 65.49964844 -72.61011719 64.37429687 -72.50585938 63.21484375 C-71.59868223 54.82958477 -69.77211696 49.2889787 -63.68359375 43.375 C-60.27086362 41.14952242 -56.73817427 39.37239575 -53.0625 37.625 C-49.11314919 35.73698169 -45.40586531 33.9069748 -41.80078125 31.40234375 C-37.52590155 28.68955399 -33.90531645 28.97045624 -29 29.625 C-26.17482153 30.42242941 -23.69397526 31.42767766 -21 32.625 C-20.72003174 31.90570313 -20.44006348 31.18640625 -20.15161133 30.4453125 C-18.22561618 25.72852303 -15.93875781 21.19328942 -13.6875 16.625 C-13.21376953 15.64015625 -12.74003906 14.6553125 -12.25195312 13.640625 C-6.14712851 1.28065177 -6.14712851 1.28065177 0 0 Z M-2 4.625 C-5.24866637 9.55020416 -8.01254846 14.55281091 -10.53857422 19.88256836 C-14.80717626 28.88517222 -19.24740595 36.25495086 -26 43.625 C-26.61875 44.44484375 -27.2375 45.2646875 -27.875 46.109375 C-30.3552953 49.04560694 -33.03892946 51.15138141 -36.125 53.4375 C-37.17945313 54.22769531 -38.23390625 55.01789063 -39.3203125 55.83203125 C-42 57.625 -42 57.625 -44 57.625 C-42.62140072 54.43136047 -41.11891172 52.63138231 -38.4375 50.4375 C-35.17327603 47.67039637 -32.05287108 44.81231961 -29 41.8125 C-28.236875 41.06355469 -27.47375 40.31460938 -26.6875 39.54296875 C-24.77981368 37.80051771 -24.77981368 37.80051771 -25 35.625 C-29.33058624 32.73794251 -32.92099714 32.69832956 -38 33.625 C-40.9087311 35.09632608 -43.46291338 36.81206385 -46.125 38.69140625 C-49.11056864 40.69936342 -52.11190432 42.1799178 -55.375 43.6875 C-60.33010922 46.13296193 -63.22072769 47.80759466 -66 52.625 C-66.99014434 55.92918954 -67.54327888 59.21021302 -68 62.625 C-68.11085938 63.31980469 -68.22171875 64.01460937 -68.3359375 64.73046875 C-68.86219464 68.29337179 -69.04323037 71.77868702 -69.0234375 75.37109375 C-69.02005371 76.17087646 -69.01666992 76.97065918 -69.01318359 77.79467773 C-69.00883301 78.39868408 -69.00448242 79.00269043 -69 79.625 C-48.77384182 82.27705202 -48.77384182 82.27705202 -30.38671875 76.859375 C-27.75229558 74.02644332 -25.8241606 70.84578138 -24.02539062 67.43310547 C-22.46923686 64.68908766 -20.37089306 62.57081341 -18.1875 60.3125 C-16.76390817 58.77524815 -15.37201092 57.20845918 -14 55.625 C-13.46971191 55.07956543 -12.93942383 54.53413086 -12.39306641 53.97216797 C-6.36210591 47.19664445 -4.19481186 39.37715149 -1.71728516 30.83984375 C-0.99546002 28.35939904 -0.2404237 25.89087333 0.51953125 23.421875 C0.99415832 21.83913133 1.46688395 20.25581594 1.9375 18.671875 C2.16131348 17.93845886 2.38512695 17.20504272 2.61572266 16.44940186 C3.74728085 12.49275232 4.2491387 9.59159726 3 5.625 C1.35 5.295 -0.3 4.965 -2 4.625 Z " fill="#008DA7" transform="translate(326,175.375)"/>
<path d="M0 0 C2.82413242 0.34198479 3.85512033 0.98190897 5.8984375 3 C8.94135914 7.52479054 11.24808675 12.34999969 13.625 17.25 C14.59462085 19.23261947 15.56590294 21.21442759 16.5390625 23.1953125 C17.17642334 24.50653076 17.17642334 24.50653076 17.82666016 25.84423828 C19.03777866 28.30367495 19.03777866 28.30367495 21 31.125 C21.5775 30.980625 22.155 30.83625 22.75 30.6875 C23.4925 30.501875 24.235 30.31625 25 30.125 C25.62777344 29.96128906 26.25554687 29.79757813 26.90234375 29.62890625 C33.64068509 28.01019855 37.65903852 28.63432242 43.48364258 32.09326172 C46.07906638 33.71284768 48.65017804 35.36888743 51.22119141 37.02685547 C53.60557247 38.49884916 56.08575016 39.69457145 58.625 40.875 C64.53314978 43.75559044 67.78998929 47.03009008 70.32885742 53.16308594 C71.43324312 56.39147571 71.83280136 59.68798176 72.1875 63.0625 C72.26935547 63.72701172 72.35121094 64.39152344 72.43554688 65.07617188 C72.97862427 69.78132138 73.06877555 74.39006783 73 79.125 C74.65 79.125 76.3 79.125 78 79.125 C78 85.725 78 92.325 78 99.125 C61.5 99.125 45 99.125 28 99.125 C28 91.865 28 84.605 28 77.125 C24.36593015 72.32134445 21.94581696 69.23589329 17.58642578 65.54541016 C15.07485547 63.29666961 13.09547766 60.76621141 11 58.125 C10.319375 57.279375 9.63875 56.43375 8.9375 55.5625 C8.298125 54.758125 7.65875 53.95375 7 53.125 C6.3296875 52.41085938 5.659375 51.69671875 4.96875 50.9609375 C2.12555836 46.86538763 0.92340646 42.49657048 -0.5 37.75 C-0.80043213 36.77353516 -1.10086426 35.79707031 -1.41040039 34.79101562 C-2.2899881 31.906935 -3.14973391 29.01784758 -4 26.125 C-4.34973877 24.93922363 -4.34973877 24.93922363 -4.70654297 23.72949219 C-9.3527345 7.77410507 -9.3527345 7.77410507 -6.5 2.1875 C-3.78494169 -0.0524231 -3.32796966 -0.21731145 0 0 Z M-2 4.125 C-4.28936302 5.98276687 -4.28936302 5.98276687 -4.22558594 8.89575195 C-3.99959101 12.13085473 -3.39742256 14.71783605 -2.390625 17.79296875 C-1.87628906 19.38141602 -1.87628906 19.38141602 -1.3515625 21.00195312 C-0.80628906 22.64067383 -0.80628906 22.64067383 -0.25 24.3125 C0.09804687 25.38564453 0.44609375 26.45878906 0.8046875 27.56445312 C1.84825969 30.75894356 2.92027315 33.94256893 4 37.125 C4.50043823 38.64794678 4.50043823 38.64794678 5.01098633 40.20166016 C6.75209841 45.30726693 8.28342612 49.25648234 12.1875 53.125 C16.20338253 57.27890795 19.86703515 61.57731391 23.46875 66.09375 C24.3040625 67.0940625 25.139375 68.094375 26 69.125 C26.55034912 69.96595215 27.10069824 70.8069043 27.66772461 71.67333984 C30.97863332 76.20042709 33.2907744 78.77389737 38.91259766 79.92871094 C43.47538193 80.2300834 48.00270659 80.00030456 52.5625 79.75 C54.15936516 79.69975863 55.75638299 79.65414535 57.35351562 79.61328125 C61.23949199 79.50386644 65.11804023 79.33184268 69 79.125 C68.89606934 77.81849487 68.89606934 77.81849487 68.79003906 76.4855957 C68.69948242 75.33148193 68.60892578 74.17736816 68.515625 72.98828125 C68.42571289 71.84915283 68.33580078 70.71002441 68.24316406 69.53637695 C67.96569418 65.64371969 67.79588484 61.75557835 67.671875 57.85546875 C66.47718759 53.0003147 64.17876733 48.75581217 60.12548828 45.72192383 C58.01763085 44.51847321 55.88945901 43.45810897 53.6875 42.4375 C52.2315451 41.72838881 50.77710902 41.01615054 49.32421875 40.30078125 C48.6082251 39.95426514 47.89223145 39.60774902 47.15454102 39.25073242 C44.9221617 38.08433004 42.85932037 36.76946823 40.7578125 35.3828125 C37.81543142 33.50121335 35.77148617 32.48731338 32.1875 32.6875 C31.45917969 32.70941406 30.73085937 32.73132813 29.98046875 32.75390625 C27.68877549 33.04939239 27.68877549 33.04939239 25 35.125 C28.64684352 43.04987151 35.20240106 48.33156532 42.05859375 53.4609375 C42.69925781 54.01007813 43.33992188 54.55921875 44 55.125 C44 55.785 44 56.445 44 57.125 C34.22253435 55.56332146 24.30844039 43.26667176 18.60302734 35.57226562 C13.29554044 27.46957773 9.3809335 18.41298762 5.34350586 9.63012695 C4.0853977 7.2842342 3.10939179 5.73291502 1 4.125 C0.01 4.125 -0.98 4.125 -2 4.125 Z " fill="#008DA7" transform="translate(162,175.875)"/>
<path d="M0 0 C1.3507685 0.97632077 2.69009519 1.96950149 4 3 C4.52207031 2.61328125 5.04414063 2.2265625 5.58203125 1.828125 C15.17189301 -4.9569961 24.28780639 -8.3504574 36.05078125 -6.71484375 C45.63792501 -4.73593432 54.04699626 0.22412788 60 8 C66.0655086 18.17525408 68.98834936 28.0763839 66.3515625 39.91015625 C62.54723001 51.46947421 53.68497944 59.65691344 45.28125 68.125 C44.77787613 68.63402863 44.27450226 69.14305725 43.75587463 69.66751099 C41.10121304 72.35188438 38.44106765 75.03066933 35.77587891 77.70458984 C33.03535372 80.4561577 30.31393564 83.22585936 27.59635162 86.00006104 C25.4891138 88.14457899 23.36854641 90.27553078 21.24412537 92.40301514 C20.23446307 93.41870711 19.22977644 94.43937176 18.23036194 95.46514893 C16.8339105 96.8958328 15.41634796 98.30581749 13.99804688 99.71484375 C13.19975464 100.52042725 12.4014624 101.32601074 11.57897949 102.15600586 C8.3420259 104.47045756 5.94251105 104.81003956 2 105 C-2.80899935 103.27356581 -6.07872894 100.341233 -9.58984375 96.73828125 C-10.09745743 96.2287944 -10.60507111 95.71930756 -11.12806702 95.19438171 C-12.1962572 94.11950245 -13.2608605 93.04104785 -14.32202148 91.95922852 C-15.92256749 90.32772137 -17.53334697 88.70693966 -19.14648438 87.08789062 C-24.02912094 82.16773712 -28.78131245 77.18395255 -33.28979492 71.9152832 C-37.46215168 67.24260101 -42.0808237 62.96545403 -46.59179688 58.62304688 C-55.16573917 50.20748135 -59.25393275 42.52425298 -59.375 30.1875 C-59.31443192 18.97982799 -55.61280237 11.14429165 -48 3 C-33.99502432 -10.58149909 -15.75167228 -9.02774415 0 0 Z M-49 10 C-54.51296842 18.88127371 -55.79104571 26.60499087 -55 37 C-52.1676993 48.86329379 -43.1068996 57.22467002 -34.78125 65.58984375 C-33.79522151 66.58485936 -32.80926084 67.57994218 -31.82336426 68.5750885 C-29.76953403 70.64529331 -27.71145465 72.71116879 -25.65087891 74.7746582 C-23.0162521 77.41470164 -20.3982258 80.07059178 -17.78372955 82.73055172 C-15.75896174 84.78507732 -13.72301734 86.82824282 -11.68382263 88.86844063 C-10.71330952 89.84314727 -9.74689881 90.8219573 -8.7848053 91.80497551 C-7.44073205 93.17597108 -6.07908829 94.52967373 -4.71679688 95.88256836 C-3.56479797 97.04217323 -3.56479797 97.04217323 -2.38952637 98.22520447 C0.56778934 100.42171955 2.30970443 101.04243041 6 101 C8.78196892 99.26110491 8.78196892 99.26110491 11.29931641 96.55883789 C11.79119949 96.07440216 12.28308258 95.58996643 12.78987122 95.09085083 C14.41143509 93.48480022 16.00636395 91.85486479 17.6015625 90.22265625 C18.72559496 89.09571907 19.8508897 87.97003963 20.97738647 86.8455658 C23.33685107 84.48288236 25.68396577 82.10877824 28.02246094 79.7253418 C31.00755141 76.68381032 34.01605884 73.66686326 37.03362465 70.6575861 C39.36134503 68.33267727 41.67868182 65.99764103 43.99283981 63.65923882 C45.09783329 62.54408957 46.20534309 61.43142754 47.31547928 60.32139778 C55.88531963 51.729509 62.79615688 43.48382947 63.3125 30.6875 C63.07786289 21.52101031 59.77148495 14.06159917 53.5625 7.375 C46.2049536 0.55581065 40.18798211 -2.58055502 30.1875 -2.5 C29.39577393 -2.49645508 28.60404785 -2.49291016 27.78833008 -2.48925781 C19.80814127 -2.26351915 14.28129355 0.16615557 8.25 5.375 C6 7 6 7 3 7 C-0.41388694 5.86203769 -2.24418118 4.29651568 -5 2 C-19.02347212 -7.70855762 -38.49787275 -2.15926765 -49 10 Z " fill="#008DA6" transform="translate(240,115)"/>
<path d="M0 0 C5.61 0 11.22 0 17 0 C17 3.96 17 7.92 17 12 C21.29 12 25.58 12 30 12 C30 17.61 30 23.22 30 29 C25.71 29 21.42 29 17 29 C17 32.96 17 36.92 17 41 C11.72 41 6.44 41 1 41 C1 37.04 1 33.08 1 29 C-3.29 29 -7.58 29 -12 29 C-12 23.39 -12 17.78 -12 12 C-8.04 12 -4.08 12 0 12 C0 8.04 0 4.08 0 0 Z " fill="#008BA4" transform="translate(235,139)"/>
<path d="M0 0 C13.53 0 27.06 0 41 0 C41 3.96 41 7.92 41 12 C27.47 12 13.94 12 0 12 C0 8.04 0 4.08 0 0 Z " fill="#000000" transform="translate(252,259)"/>
<path d="M0 0 C13.53 0 27.06 0 41 0 C41 3.96 41 7.92 41 12 C27.47 12 13.94 12 0 12 C0 8.04 0 4.08 0 0 Z " fill="#000000" transform="translate(194,259)"/>
<path d="M0 0 C2.64 0 5.28 0 8 0 C8 4.29 8 8.58 8 13 C11.96 13 15.92 13 20 13 C20 15.64 20 18.28 20 21 C16.04 21 12.08 21 8 21 C8 24.96 8 28.92 8 33 C5.36 33 2.72 33 0 33 C0 29.04 0 25.08 0 21 C-4.29 21 -8.58 21 -13 21 C-13 18.36 -13 15.72 -13 13 C-8.71 13 -4.42 13 0 13 C0 8.71 0 4.42 0 0 Z " fill="#000303" transform="translate(240,143)"/>
<path d="M0 0 C0.99 0 1.98 0 3 0 C3 9.24 3 18.48 3 28 C-0.63 28 -4.26 28 -8 28 C-11.39430879 24.60569121 -12.17358385 23.29683123 -12.375 18.6875 C-12.32188536 15.03439338 -12.04582688 14.06943467 -9.9375 10.875 C-7 9 -7 9 -3.1875 9.1875 C-2.135625 9.455625 -1.08375 9.72375 0 10 C0 6.7 0 3.4 0 0 Z " fill="#008198" transform="translate(224,336)"/>
<path d="M0 0 C1.32 0 2.64 0 4 0 C5.17094005 2.7899439 6.33690927 5.58178597 7.5 8.375 C8.00080078 9.56609375 8.00080078 9.56609375 8.51171875 10.78125 C8.82753906 11.54179687 9.14335937 12.30234375 9.46875 13.0859375 C9.76201172 13.7876709 10.05527344 14.4894043 10.35742188 15.21240234 C11 17 11 17 11 19 C11.66 19 12.32 19 13 19 C13.25523437 18.07380859 13.25523437 18.07380859 13.515625 17.12890625 C15.22185424 11.1661796 17.33581117 5.59885369 20 0 C21.32 0 22.64 0 24 0 C24 7.92 24 15.84 24 24 C23.01 24 22.02 24 21 24 C20.67 18.39 20.34 12.78 20 7 C17.69 12.61 15.38 18.22 13 24 C12.01 24 11.02 24 10 24 C7.69 18.39 5.38 12.78 3 7 C2.67 12.61 2.34 18.22 2 24 C1.34 24 0.68 24 0 24 C0 16.08 0 8.16 0 0 Z " fill="#008EA7" transform="translate(168,340)"/>
<path d="M0 0 C4.05445642 -0.43132515 5.54970958 -0.30019361 9 2 C9.35893593 4.56550925 9.55765553 6.92647905 9.625 9.5 C9.62227223 14.39957908 9.62227223 14.39957908 11 19 C10.195625 18.814375 9.39125 18.62875 8.5625 18.4375 C7.716875 18.293125 6.87125 18.14875 6 18 C5.67 18.33 5.34 18.66 5 19 C1.5625 19.1875 1.5625 19.1875 -2 19 C-2.66 18.34 -3.32 17.68 -4 17 C-3.84149359 13.90912504 -3.4565053 12.4565053 -1.25 10.25 C1.18691588 8.89615784 3.25094301 8.38181347 6 8 C5.67 6.35 5.34 4.7 5 3 C2.69 3 0.38 3 -2 3 C-1.34 2.01 -0.68 1.02 0 0 Z " fill="#00829A" transform="translate(249,345)"/>
<path d="M0 0 C3.29690593 0.76082445 4.48226263 1.81068444 6.4375 4.5625 C6.6875 7.8125 6.6875 7.8125 6.4375 10.5625 C2.8075 10.5625 -0.8225 10.5625 -4.5625 10.5625 C-3.9025 12.5425 -3.2425 14.5225 -2.5625 16.5625 C0.81567425 17.40704356 3.11215243 17.67094919 6.4375 16.5625 C5.375 18.0625 5.375 18.0625 3.4375 19.5625 C-2.67014873 20.21689093 -2.67014873 20.21689093 -5.4375 18.1875 C-8.1910558 14.21014162 -8.28560327 10.27485842 -7.5625 5.5625 C-5.2558477 2.33318679 -3.89674276 0.85538256 0 0 Z " fill="#008097" transform="translate(203.5625,344.4375)"/>
<path d="M0 0 C0.02685938 2.14576637 0.04633088 4.29162645 0.0625 6.4375 C0.07410156 7.63246094 0.08570313 8.82742188 0.09765625 10.05859375 C0 13 0 13 -1 14 C-3.9375 14.1875 -3.9375 14.1875 -7 14 C-9.51012963 11.48987037 -9.29721609 10.53194763 -9.3125 7.0625 C-9.32925781 6.18722656 -9.34601563 5.31195313 -9.36328125 4.41015625 C-9 2 -9 2 -7.85546875 0.12109375 C-5.07395305 -1.55952732 -3.04991347 -0.7455344 0 0 Z " fill="#000202" transform="translate(224,348)"/>
<path d="M0 0 C1.32 0 2.64 0 4 0 C4 7.92 4 15.84 4 24 C3.01 24 2.02 24 1 24 C0.67 18.39 0.34 12.78 0 7 C-1.98 11.95 -3.96 16.9 -6 22 C-6.33 21.34 -6.66 20.68 -7 20 C-7.66 19.67 -8.32 19.34 -9 19 C-8.34 19 -7.68 19 -7 19 C-6.74476563 18.07380859 -6.74476563 18.07380859 -6.484375 17.12890625 C-4.77814576 11.1661796 -2.66418883 5.59885369 0 0 Z " fill="#0088A0" transform="translate(188,340)"/>
<path d="M0 0 C0 0.66 0 1.32 0 2 C-2.31 2 -4.62 2 -7 2 C-7.33 3.32 -7.66 4.64 -8 6 C-7.071875 6.28875 -6.14375 6.5775 -5.1875 6.875 C-2 8 -2 8 1 10 C0.125 16.875 0.125 16.875 -1 18 C-8.52238806 18.23880597 -8.52238806 18.23880597 -11 17 C-11 16.34 -11 15.68 -11 15 C-8.69 15.33 -6.38 15.66 -4 16 C-3.67 14.35 -3.34 12.7 -3 11 C-3.94875 10.54625 -4.8975 10.0925 -5.875 9.625 C-9 8 -9 8 -11 6 C-10.8125 3.5 -10.8125 3.5 -10 1 C-6.1496895 -1.56687367 -4.41430237 -0.83288724 0 0 Z " fill="#00829A" transform="translate(288,346)"/>
<path d="M0 0 C0.66 0.33 1.32 0.66 2 1 C2 1.66 2 2.32 2 3 C-0.31 3 -2.62 3 -5 3 C-5 4.32 -5 5.64 -5 7 C-3.865625 7.37125 -2.73125 7.7425 -1.5625 8.125 C0.36328125 8.9453125 0.36328125 8.9453125 2 10 C3.125 13 3.125 13 3 16 C2.0625 17.875 2.0625 17.875 0 19 C-2.71903738 19.24085961 -5.25889485 19.13480845 -8 19 C-8 18.01 -8 17.02 -8 16 C-6.02 16.33 -4.04 16.66 -2 17 C-1.67 15.68 -1.34 14.36 -1 13 C-2.7015625 12.195625 -2.7015625 12.195625 -4.4375 11.375 C-7.40547932 9.68331199 -7.88797752 9.30495008 -9.125 5.9375 C-9 3 -9 3 -7.9375 1.125 C-5.20364043 -0.46240233 -3.10560173 -0.26430653 0 0 Z " fill="#0087A0" transform="translate(308,345)"/>
<path d="M0 0 C0.66 0.33 1.32 0.66 2 1 C2 1.66 2 2.32 2 3 C-0.31 3 -2.62 3 -5 3 C-5 4.32 -5 5.64 -5 7 C-3.865625 7.37125 -2.73125 7.7425 -1.5625 8.125 C0.36328125 8.9453125 0.36328125 8.9453125 2 10 C3.125 13 3.125 13 3 16 C2.0625 17.875 2.0625 17.875 0 19 C-2.71903738 19.24085961 -5.25889485 19.13480845 -8 19 C-8 18.01 -8 17.02 -8 16 C-6.02 16.33 -4.04 16.66 -2 17 C-1.67 15.68 -1.34 14.36 -1 13 C-2.7015625 12.195625 -2.7015625 12.195625 -4.4375 11.375 C-7.40547932 9.68331199 -7.88797752 9.30495008 -9.125 5.9375 C-9 3 -9 3 -7.9375 1.125 C-5.20364043 -0.46240233 -3.10560173 -0.26430653 0 0 Z " fill="#0087A0" transform="translate(272,345)"/>
<path d="M0 0 C0.66 0 1.32 0 2 0 C2.33 3.3 2.66 6.6 3 10 C-3.8359375 10.1953125 -3.8359375 10.1953125 -6 10 C-6.66 9.34 -7.32 8.68 -8 8 C-7.625 5.875 -7.625 5.875 -7 4 C-5.34385343 3.61781233 -3.67542976 3.28604898 -2 3 C-1.67 3.33 -1.34 3.66 -1 4 C-0.67 2.68 -0.34 1.36 0 0 Z " fill="#004B59" transform="translate(209,394)"/>
<path d="M0 0 C0.66 0 1.32 0 2 0 C2 1.98 2 3.96 2 6 C3.65 6 5.3 6 7 6 C7 6.33 7 6.66 7 7 C5.35 7 3.7 7 2 7 C2.33 11.62 2.66 16.24 3 21 C4.32 21.33 5.64 21.66 7 22 C7 22.66 7 23.32 7 24 C5.00045254 24.04254356 2.99958364 24.04080783 1 24 C0 23 0 23 -0.09765625 19.40234375 C-0.0909822 17.91403133 -0.07902183 16.42573568 -0.0625 14.9375 C-0.05798828 14.17888672 -0.05347656 13.42027344 -0.04882812 12.63867188 C-0.0370068 10.75908129 -0.01907078 8.87953101 0 7 C-0.66 6.67 -1.32 6.34 -2 6 C-1.34 4.02 -0.68 2.04 0 0 Z " fill="#008DA7" transform="translate(315,340)"/>
<path d="M0 0 C1.21816406 0.03480469 1.21816406 0.03480469 2.4609375 0.0703125 C3.68683594 0.09738281 3.68683594 0.09738281 4.9375 0.125 C5.87722656 0.15980469 5.87722656 0.15980469 6.8359375 0.1953125 C7.1659375 2.5053125 7.4959375 4.8153125 7.8359375 7.1953125 C6.8459375 7.1953125 5.8559375 7.1953125 4.8359375 7.1953125 C4.5059375 6.5353125 4.1759375 5.8753125 3.8359375 5.1953125 C3.1759375 5.8553125 2.5159375 6.5153125 1.8359375 7.1953125 C-0.7890625 6.8203125 -0.7890625 6.8203125 -3.1640625 6.1953125 C-3.7890625 4.3203125 -3.7890625 4.3203125 -4.1640625 2.1953125 C-2.1640625 0.1953125 -2.1640625 0.1953125 0 0 Z " fill="#00434F" transform="translate(230.1640625,396.8046875)"/>
<path d="M0 0 C0.66 0 1.32 0 2 0 C2 1.98 2 3.96 2 6 C2.99 6 3.98 6 5 6 C4.67 4.02 4.34 2.04 4 0 C6.31 0 8.62 0 11 0 C11.33 2.31 11.66 4.62 12 7 C10.18757948 7.02687279 8.37504767 7.04633715 6.5625 7.0625 C5.55316406 7.07410156 4.54382813 7.08570313 3.50390625 7.09765625 C1 7 1 7 0 6 C-0.04080783 4.00041636 -0.04254356 1.99954746 0 0 Z " fill="#006F83" transform="translate(296,397)"/>
<path d="M0 0 C0.99 0 1.98 0 3 0 C3 6.27 3 12.54 3 19 C2.01 19 1.02 19 0 19 C0 12.73 0 6.46 0 0 Z " fill="#007B91" transform="translate(231,345)"/>
<path d="M0 0 C2.33294775 -0.04241723 4.66702567 -0.04092937 7 0 C8 1 8 1 8.0625 3.5625 C8.041875 4.366875 8.02125 5.17125 8 6 C6.35 6.33 4.7 6.66 3 7 C3.33 7.99 3.66 8.98 4 10 C2.68 9.67 1.36 9.34 0 9 C0 6.03 0 3.06 0 0 Z " fill="#005160" transform="translate(213,397)"/>
<path d="M0 0 C0.99 0 1.98 0 3 0 C3 5.94 3 11.88 3 18 C2.01 18 1.02 18 0 18 C0 12.06 0 6.12 0 0 Z " fill="#00879F" transform="translate(292,346)"/>
<path d="M0 0 C2.4375 0.1875 2.4375 0.1875 3.4375 1.1875 C3.47830783 3.18708364 3.48004356 5.18795254 3.4375 7.1875 C0.7975 7.1875 -1.8425 7.1875 -4.5625 7.1875 C-4.6875 4.8125 -4.6875 4.8125 -4.5625 2.1875 C-2.5625 0.1875 -2.5625 0.1875 0 0 Z " fill="#000B0D" transform="translate(203.5625,346.8125)"/>
<path d="M0 0 C0.66 0 1.32 0 2 0 C2 1.98 2 3.96 2 6 C2.99 6 3.98 6 5 6 C5 4.02 5 2.04 5 0 C6.98 0 8.96 0 11 0 C11.33 2.31 11.66 4.62 12 7 C8.37 7 4.74 7 1 7 C0.67 4.69 0.34 2.38 0 0 Z " fill="#007A91" transform="translate(264,397)"/>
<path d="M0 0 C0.66 0 1.32 0 2 0 C2 1.32 2 2.64 2 4 C3.32 4 4.64 4 6 4 C6.33 6.31 6.66 8.62 7 11 C4.36 11 1.72 11 -1 11 C-1.02688151 9.35425434 -1.04634123 7.70838587 -1.0625 6.0625 C-1.07410156 5.14597656 -1.08570313 4.22945313 -1.09765625 3.28515625 C-1 1 -1 1 0 0 Z " fill="#005362" transform="translate(193,393)"/>
<path d="M0 0 C1.69141656 0.08963062 3.37959602 0.24577676 5.0625 0.4375 C6.44115234 0.59025391 6.44115234 0.59025391 7.84765625 0.74609375 C8.55792969 0.82988281 9.26820313 0.91367187 10 1 C10 1.33 10 1.66 10 2 C7.36 2 4.72 2 2 2 C2.66 3.98 3.32 5.96 4 8 C7.37817425 8.84454356 9.67465243 9.10844919 13 8 C11.9375 9.5 11.9375 9.5 10 11 C4.1130742 11.63074205 4.1130742 11.63074205 1.125 9.9375 C-0.55292597 7.0477386 -0.75590976 4.29521825 -1 1 C-0.67 0.67 -0.34 0.34 0 0 Z " fill="#00859D" transform="translate(197,353)"/>
<path d="M0 0 C0.125 2.875 0.125 2.875 0 6 C-0.66 6.66 -1.32 7.32 -2 8 C-4.125 7.625 -4.125 7.625 -6 7 C-6.33 5.68 -6.66 4.36 -7 3 C-3.375 0 -3.375 0 0 0 Z " fill="#000506" transform="translate(255,355)"/>
<path d="M0 0 C1.67542976 0.28604898 3.34385343 0.61781233 5 1 C5 2.65 5 4.3 5 6 C2.625 6.625 2.625 6.625 0 7 C-0.66 6.34 -1.32 5.68 -2 5 C-1.46428571 1.46428571 -1.46428571 1.46428571 0 0 Z " fill="#00434F" transform="translate(289,397)"/>
<path d="M0 0 C1.67542976 0.28604898 3.34385343 0.61781233 5 1 C5 2.65 5 4.3 5 6 C2.625 6.625 2.625 6.625 0 7 C-0.66 6.34 -1.32 5.68 -2 5 C-1.46428571 1.46428571 -1.46428571 1.46428571 0 0 Z " fill="#00434F" transform="translate(257,397)"/>
<path d="M0 0 C0.33 0 0.66 0 1 0 C1.309375 1.134375 1.61875 2.26875 1.9375 3.4375 C2.62924531 6.78775099 2.62924531 6.78775099 4 8 C5.34747084 8.23075082 6.70377565 8.41153063 8.0625 8.5625 C9.361875 8.706875 10.66125 8.85125 12 9 C11.67 9.66 11.34 10.32 11 11 C3.65840708 11.36106195 3.65840708 11.36106195 1.0625 9.9375 C-0.52903176 7.03529503 -0.75792934 4.26795396 -1 1 C-0.67 0.67 -0.34 0.34 0 0 Z " fill="#00849C" transform="translate(213,353)"/>
<path d="M0 0 C0.33 0 0.66 0 1 0 C0.57534294 7.36072234 -1.98348917 13.32137824 -5 20 C-5.33 19.34 -5.66 18.68 -6 18 C-6.66 17.67 -7.32 17.34 -8 17 C-7.34 17 -6.68 17 -6 17 C-5.81824219 16.35933594 -5.63648438 15.71867187 -5.44921875 15.05859375 C-3.93729955 9.85604103 -2.24999329 4.92855673 0 0 Z " fill="#007B91" transform="translate(187,342)"/>
<path d="M0 0 C2.9375 -0.375 2.9375 -0.375 6 0 C7.875 1.5 7.875 1.5 9 3 C8.67 3.33 8.34 3.66 8 4 C7.76572222 6.01594582 7.58663876 8.038474 7.4375 10.0625 C7.35371094 11.16722656 7.26992188 12.27195312 7.18359375 13.41015625 C7.12300781 14.26480469 7.06242187 15.11945313 7 16 C6.67 16 6.34 16 6 16 C5.34 13.36 4.68 10.72 4 8 C4.66 8 5.32 8 6 8 C5.67 6.35 5.34 4.7 5 3 C2.69 3 0.38 3 -2 3 C-1.34 2.01 -0.68 1.02 0 0 Z " fill="#00687B" transform="translate(249,345)"/>
<path d="M0 0 C0.33 0 0.66 0 1 0 C1.06058594 0.98742187 1.12117188 1.97484375 1.18359375 2.9921875 C1.26738281 4.27351563 1.35117187 5.55484375 1.4375 6.875 C1.51871094 8.15117187 1.59992188 9.42734375 1.68359375 10.7421875 C1.79206027 13.88300152 1.79206027 13.88300152 3 16 C1.68 16 0.36 16 -1 16 C-1.02685095 13.52076199 -1.04676547 11.0418116 -1.0625 8.5625 C-1.07506836 7.50192383 -1.07506836 7.50192383 -1.08789062 6.41992188 C-1.09653588 4.61306441 -1.05220011 2.80612397 -1 1 C-0.67 0.67 -0.34 0.34 0 0 Z " fill="#0094AE" transform="translate(257,348)"/>
<path d="M0 0 C1.32 0 2.64 0 4 0 C5.20628008 2.33214148 6.1654738 4.49642139 7 7 C6.01 7.99 5.02 8.98 4 10 C2.68 6.7 1.36 3.4 0 0 Z " fill="#007489" transform="translate(165,394)"/>
<path d="M0 0 C0.33 2.31 0.66 4.62 1 7 C-0.65 6.67 -2.3 6.34 -4 6 C-4 4.35 -4 2.7 -4 1 C-2 0 -2 0 0 0 Z " fill="#003F4B" transform="translate(307,397)"/>
<path d="M0 0 C0.33 2.31 0.66 4.62 1 7 C-0.65 6.67 -2.3 6.34 -4 6 C-4 4.35 -4 2.7 -4 1 C-2 0 -2 0 0 0 Z " fill="#003F4B" transform="translate(275,397)"/>
<path d="M0 0 C1.32 0 2.64 0 4 0 C4.66 2.97 5.32 5.94 6 9 C5.01 9.495 5.01 9.495 4 10 C2.68 6.7 1.36 3.4 0 0 Z " fill="#00778C" transform="translate(171,394)"/>
<path d="M0 0 C3 0.1875 3 0.1875 5 1.1875 C5 1.8475 5 2.5075 5 3.1875 C3.88625 3.125625 2.7725 3.06375 1.625 3 C-0.169375 3.0928125 -0.169375 3.0928125 -2 3.1875 C-2.66 4.1775 -3.32 5.1675 -4 6.1875 C-4.625 4.3125 -4.625 4.3125 -5 2.1875 C-3 0.1875 -3 0.1875 0 0 Z " fill="#00758A" transform="translate(305,344.8125)"/>
<path d="M0 0 C3 0.1875 3 0.1875 5 1.1875 C5 1.8475 5 2.5075 5 3.1875 C3.88625 3.125625 2.7725 3.06375 1.625 3 C-0.169375 3.0928125 -0.169375 3.0928125 -2 3.1875 C-2.66 4.1775 -3.32 5.1675 -4 6.1875 C-4.625 4.3125 -4.625 4.3125 -5 2.1875 C-3 0.1875 -3 0.1875 0 0 Z " fill="#00758A" transform="translate(269,344.8125)"/>
<path d="M0 0 C0.33 2.31 0.66 4.62 1 7 C0.01 7 -0.98 7 -2 7 C-2.66 6.34 -3.32 5.68 -4 5 C-4 3.68 -4 2.36 -4 1 C-2 0 -2 0 0 0 Z " fill="#005665" transform="translate(237,397)"/>
<path d="M0 0 C1.65 0 3.3 0 5 0 C4.34 1.98 3.68 3.96 3 6 C2.01 5.67 1.02 5.34 0 5 C0 3.35 0 1.7 0 0 Z " fill="#00242B" transform="translate(175,394)"/>
<path d="M0 0 C3.3 0.33 6.6 0.66 10 1 C10 1.33 10 1.66 10 2 C7.03 2 4.06 2 1 2 C1 2.99 1 3.98 1 5 C0.34 5 -0.32 5 -1 5 C-0.67 3.35 -0.34 1.7 0 0 Z " fill="#0096B1" transform="translate(197,353)"/>
</svg>
